<?xml version="1.0" encoding="UTF-8" standalone="no"?>
<!DOCTYPE svg PUBLIC "-//W3C//DTD SVG 1.1//EN"
 "http://www.w3.org/Graphics/SVG/1.1/DTD/svg11.dtd">
<!-- Generated by graphviz version 2.38.0 (20140413.2041)
 -->
<!-- Title: G Pages: 1 -->
<svg width="474pt" height="286pt"
 viewBox="0.00 0.00 473.84 286.00" xmlns="http://www.w3.org/2000/svg" xmlns:xlink="http://www.w3.org/1999/xlink">
<g id="graph0" class="graph" transform="scale(1 1) rotate(0) translate(4 282)">
<title>G</title>
<polygon fill="white" stroke="none" points="-4,4 -4,-282 469.84,-282 469.84,4 -4,4"/>
<g id="clust1" class="cluster"><title>cluster_Global</title>
<path fill="none" stroke="gray" d="M20,-44C20,-44 445.84,-44 445.84,-44 451.84,-44 457.84,-50 457.84,-56 457.84,-56 457.84,-258 457.84,-258 457.84,-264 451.84,-270 445.84,-270 445.84,-270 20,-270 20,-270 14,-270 8,-264 8,-258 8,-258 8,-56 8,-56 8,-50 14,-44 20,-44"/>
<text text-anchor="middle" x="232.92" y="-257.2" font-family="Times,serif" font-size="11.00" fill="gray">Global</text>
</g>
<g id="clust2" class="cluster"><title>cluster_\BishopB</title>
<path fill="none" stroke="gray" d="M28,-52C28,-52 437.84,-52 437.84,-52 443.84,-52 449.84,-58 449.84,-64 449.84,-64 449.84,-230 449.84,-230 449.84,-236 443.84,-242 437.84,-242 437.84,-242 28,-242 28,-242 22,-242 16,-236 16,-230 16,-230 16,-64 16,-64 16,-58 22,-52 28,-52"/>
<text text-anchor="middle" x="232.92" y="-229.2" font-family="Times,serif" font-size="11.00" fill="gray">BishopB</text>
</g>
<g id="clust3" class="cluster"><title>cluster_\BishopB\Pattern</title>
<path fill="none" stroke="gray" d="M36,-60C36,-60 429.84,-60 429.84,-60 435.84,-60 441.84,-66 441.84,-72 441.84,-72 441.84,-202 441.84,-202 441.84,-208 435.84,-214 429.84,-214 429.84,-214 36,-214 36,-214 30,-214 24,-208 24,-202 24,-202 24,-72 24,-72 24,-66 30,-60 36,-60"/>
<text text-anchor="middle" x="232.92" y="-201.2" font-family="Times,serif" font-size="11.00" fill="gray">Pattern</text>
</g>
<g id="clust4" class="cluster"><title>cluster_\BishopB\Pattern\Exception</title>
<path fill="none" stroke="gray" d="M44,-114C44,-114 421.84,-114 421.84,-114 427.84,-114 433.84,-120 433.84,-126 433.84,-126 433.84,-174 433.84,-174 433.84,-180 427.84,-186 421.84,-186 421.84,-186 44,-186 44,-186 38,-186 32,-180 32,-174 32,-174 32,-126 32,-126 32,-120 38,-114 44,-114"/>
<text text-anchor="middle" x="232.92" y="-173.2" font-family="Times,serif" font-size="11.00" fill="gray">Exception</text>
</g>
<!-- \\BishopB\\Pattern\\Exception\\InvalidArgument -->
<g id="node1" class="node"><title>\\BishopB\\Pattern\\Exception\\InvalidArgument</title>
<polygon fill="none" stroke="black" points="425.84,-158 307.84,-158 307.84,-122 425.84,-122 425.84,-158"/>
<text text-anchor="middle" x="366.84" y="-137.2" font-family="Courier,monospace" font-size="11.00">InvalidArgument</text>
</g>
<!-- \\BishopB\\Pattern\\Exception\\PatternLibraryException -->
<g id="node2" class="node"><title>\\BishopB\\Pattern\\Exception\\PatternLibraryException</title>
<polygon fill="none" stroke="black" points="212,-158 40,-158 40,-122 212,-122 212,-158"/>
<text text-anchor="middle" x="126" y="-137.2" font-family="Courier,monospace" font-size="11.00">PatternLibraryException</text>
</g>
<!-- \\BishopB\\Pattern\\Exception\\InvalidArgument&#45;&gt;\\BishopB\\Pattern\\Exception\\PatternLibraryException -->
<g id="edge2" class="edge"><title>\\BishopB\\Pattern\\Exception\\InvalidArgument&#45;&gt;\\BishopB\\Pattern\\Exception\\PatternLibraryException</title>
<path fill="none" stroke="black" stroke-dasharray="1,5" d="M307.719,-140C282.027,-140 251.142,-140 222.232,-140"/>
<polygon fill="none" stroke="black" points="222.1,-136.5 212.1,-140 222.099,-143.5 222.1,-136.5"/>
</g>
<!-- \\InvalidArgumentException -->
<g id="node5" class="node"><title>\\InvalidArgumentException</title>
<ellipse fill="none" stroke="black" cx="126" cy="-18" rx="109.681" ry="18"/>
<text text-anchor="middle" x="126" y="-14.3" font-family="Times,serif" font-size="14.00" fill="gray">\InvalidArgumentException</text>
</g>
<!-- \\BishopB\\Pattern\\Exception\\InvalidArgument&#45;&gt;\\InvalidArgumentException -->
<g id="edge1" class="edge"><title>\\BishopB\\Pattern\\Exception\\InvalidArgument&#45;&gt;\\InvalidArgumentException</title>
<path fill="none" stroke="black" d="M315.043,-121.951C312.569,-120.694 310.154,-119.377 307.84,-118 271.549,-96.4071 272.416,-77.1076 235.84,-56 222.812,-48.4815 208.053,-42.1023 193.701,-36.8416"/>
<polygon fill="none" stroke="black" points="194.452,-33.3955 183.857,-33.378 192.129,-39.9987 194.452,-33.3955"/>
</g>
<!-- \\BishopB\\Pattern\\Literal -->
<g id="node3" class="node"><title>\\BishopB\\Pattern\\Literal</title>
<polygon fill="none" stroke="black" points="398.84,-104 334.84,-104 334.84,-68 398.84,-68 398.84,-104"/>
<text text-anchor="middle" x="366.84" y="-83.2" font-family="Courier,monospace" font-size="11.00">Literal</text>
</g>
<!-- \\BishopB\\Pattern\\Pattern -->
<g id="node4" class="node"><title>\\BishopB\\Pattern\\Pattern</title>
<polygon fill="none" stroke="black" points="168,-104 84,-104 84,-68 168,-68 168,-104"/>
<text text-anchor="start" x="92" y="-89.2" font-family="Courier,monospace" font-size="11.00">«abstract»</text>
<text text-anchor="start" x="102" y="-77.2" font-family="Courier,monospace" font-size="11.00">Pattern</text>
</g>
<!-- \\BishopB\\Pattern\\Literal&#45;&gt;\\BishopB\\Pattern\\Pattern -->
<g id="edge3" class="edge"><title>\\BishopB\\Pattern\\Literal&#45;&gt;\\BishopB\\Pattern\\Pattern</title>
<path fill="none" stroke="black" d="M334.616,-86C294.917,-86 225.836,-86 178.337,-86"/>
<polygon fill="none" stroke="black" points="178.249,-82.5001 168.249,-86 178.249,-89.5001 178.249,-82.5001"/>
</g>
</g>
</svg>
