<?xml version="1.0" encoding="UTF-8" standalone="no"?>
<!DOCTYPE svg PUBLIC "-//W3C//DTD SVG 1.1//EN"
 "http://www.w3.org/Graphics/SVG/1.1/DTD/svg11.dtd">
<!-- Generated by graphviz version 2.38.0 (20140413.2041)
 -->
<!-- Title: G Pages: 1 -->
<svg width="165pt" height="204pt"
 viewBox="0.00 0.00 165.00 204.00" xmlns="http://www.w3.org/2000/svg" xmlns:xlink="http://www.w3.org/1999/xlink">
<g id="graph0" class="graph" transform="scale(1 1) rotate(0) translate(4 200)">
<title>G</title>
<polygon fill="white" stroke="none" points="-4,4 -4,-200 161,-200 161,4 -4,4"/>
<g id="clust1" class="cluster"><title>cluster_Global</title>
<path fill="none" stroke="gray" d="M20,-8C20,-8 137,-8 137,-8 143,-8 149,-14 149,-20 149,-20 149,-176 149,-176 149,-182 143,-188 137,-188 137,-188 20,-188 20,-188 14,-188 8,-182 8,-176 8,-176 8,-20 8,-20 8,-14 14,-8 20,-8"/>
<text text-anchor="middle" x="78.5" y="-175.2" font-family="Times,serif" font-size="11.00" fill="gray">Global</text>
</g>
<g id="clust2" class="cluster"><title>cluster_\BishopB</title>
<path fill="none" stroke="gray" d="M28,-16C28,-16 129,-16 129,-16 135,-16 141,-22 141,-28 141,-28 141,-148 141,-148 141,-154 135,-160 129,-160 129,-160 28,-160 28,-160 22,-160 16,-154 16,-148 16,-148 16,-28 16,-28 16,-22 22,-16 28,-16"/>
<text text-anchor="middle" x="78.5" y="-147.2" font-family="Times,serif" font-size="11.00" fill="gray">BishopB</text>
</g>
<g id="clust3" class="cluster"><title>cluster_\BishopB\Upm</title>
<path fill="none" stroke="gray" d="M36,-24C36,-24 121,-24 121,-24 127,-24 133,-30 133,-36 133,-36 133,-120 133,-120 133,-126 127,-132 121,-132 121,-132 36,-132 36,-132 30,-132 24,-126 24,-120 24,-120 24,-36 24,-36 24,-30 30,-24 36,-24"/>
<text text-anchor="middle" x="78.5" y="-119.2" font-family="Times,serif" font-size="11.00" fill="gray">Upm</text>
</g>
<g id="clust4" class="cluster"><title>cluster_\BishopB\Upm\Contract</title>
<path fill="none" stroke="gray" d="M44,-32C44,-32 113,-32 113,-32 119,-32 125,-38 125,-44 125,-44 125,-92 125,-92 125,-98 119,-104 113,-104 113,-104 44,-104 44,-104 38,-104 32,-98 32,-92 32,-92 32,-44 32,-44 32,-38 38,-32 44,-32"/>
<text text-anchor="middle" x="78.5" y="-91.2" font-family="Times,serif" font-size="11.00" fill="gray">Contract</text>
</g>
<!-- \\BishopB\\Upm\\Contract\\Matchable -->
<g id="node1" class="node"><title>\\BishopB\\Upm\\Contract\\Matchable</title>
<polygon fill="none" stroke="black" points="117,-76 40,-76 40,-40 117,-40 117,-76"/>
<text text-anchor="middle" x="78.5" y="-55.2" font-family="Courier,monospace" font-size="11.00">Matchable</text>
</g>
</g>
</svg>
